# xmcd
#
# Track frame offsets: 
#        150
#        18023
#        34256
#        50780
#        70055
#        89110
#        106584
#        125094
#
# Disc length: 1885 seconds
#
# Revision: 0
# Processed by: cddbd v1.5.2PL0 Copyright (c) Steve Scherf et al.
# Submitted via: ExactAudioCopy v0.99pb4
#
DISCID=69075b08
DTITLE=VULVECTOMY - Putrescent Clitoral Fermentation
DYEAR=2007
DGENRE=Death Metal
TTITLE0=Festering Detatched Genitals
TTITLE1=Pusfull Hymen Liquified
TTITLE2=Depilated Cunt Twitch
TTITLE3=Masturbating with Defecated Entrails
TTITLE4=Putrescent Clitoral Fermentation
TTITLE5=Regurgitation of Menstrual Scabs
TTITLE6=Fornicate in Putrefaction
TTITLE7=Postmortal Orifice Lubrication
EXTD=
EXTT0=
EXTT1=
EXTT2=
EXTT3=
EXTT4=
EXTT5=
EXTT6=
EXTT7=
PLAYORDER=
